<?xml version="1.0" standalone="no"?>
<!DOCTYPE svg PUBLIC "-//W3C//DTD SVG 20010904//EN"
 "http://www.w3.org/TR/2001/REC-SVG-20010904/DTD/svg10.dtd">
<svg version="1.0" xmlns="http://www.w3.org/2000/svg"
 width="482.000000pt" height="133.000000pt" viewBox="0 0 482.000000 133.000000"
 preserveAspectRatio="xMidYMid meet">

<g transform="translate(0.000000,133.000000) scale(0.100000,-0.100000)"
fill="#000000" stroke="none">
<path d="M380 1158 c-5 -13 -34 -144 -65 -293 -31 -148 -59 -280 -62 -293 -4
-19 -10 -22 -29 -18 -13 3 -35 9 -49 12 -44 11 -30 -23 19 -45 l44 -19 -29
-134 c-42 -198 -42 -198 -30 -198 17 0 27 28 61 173 17 75 36 137 41 137 5 0
126 -59 269 -130 143 -71 264 -130 270 -130 5 0 10 7 10 15 0 10 -98 64 -271
151 l-272 135 54 36 c91 61 156 119 377 337 125 124 212 218 212 229 0 10 -5
17 -10 15 -6 -2 -117 -109 -248 -239 -203 -202 -345 -329 -366 -329 -12 0 -5
43 49 301 30 145 55 274 55 286 0 29 -18 30 -30 1z"/>
<path d="M2658 1170 c-108 -33 -225 -176 -318 -386 -83 -188 -118 -378 -90
-480 27 -95 116 -149 200 -120 63 22 113 61 221 174 54 57 99 99 99 93 0 -6 9
-15 19 -20 15 -8 27 -5 53 13 l35 23 21 -23 c22 -26 37 -24 86 9 l28 20 -6
-21 c-31 -95 -81 -350 -72 -359 15 -15 28 22 62 173 20 87 38 160 39 162 1 1
14 -3 28 -9 74 -34 170 88 138 174 -15 39 -59 37 -108 -5 -22 -20 -34 -26 -30
-16 16 43 27 99 22 109 -13 21 -33 -13 -51 -84 -13 -54 -25 -80 -50 -105 -55
-55 -85 -37 -66 40 14 52 2 78 -36 78 -30 0 -55 -23 -127 -115 -74 -93 -210
-227 -260 -256 -86 -50 -157 -32 -196 49 -76 157 85 616 278 792 80 73 140 80
180 21 28 -41 31 -116 8 -182 -17 -47 -7 -72 19 -50 15 13 36 93 36 139 0 110
-78 188 -162 162z m518 -604 c7 -29 -16 -77 -52 -105 -31 -24 -47 -26 -62 -8
-23 27 53 137 94 137 8 0 16 -11 20 -24z m-286 -4 c0 -24 -58 -102 -76 -102
-22 0 -17 22 16 73 30 48 60 62 60 29z"/>
<path d="M4320 986 c-8 -22 -65 -250 -100 -402 -8 -36 -24 -64 -54 -97 -24
-26 -48 -47 -54 -47 -18 0 -14 50 9 125 20 66 19 109 -2 88 -16 -16 -50 -162
-47 -202 4 -49 36 -54 88 -12 l38 30 -10 -41 c-5 -26 -5 -45 1 -51 12 -12 31
-1 31 18 0 10 9 12 34 8 33 -5 58 4 179 65 4 2 7 -3 7 -12 0 -9 11 -23 25 -32
37 -24 90 -6 148 52 62 60 63 91 2 35 -61 -56 -109 -79 -130 -61 -8 7 -15 23
-15 35 0 18 7 25 30 30 28 6 80 56 80 76 0 22 -22 49 -39 49 -21 0 -62 -44
-88 -93 -16 -31 -43 -58 -76 -78 -18 -10 -18 -9 -1 15 20 32 23 98 5 120 -19
23 -57 20 -95 -9 l-33 -25 44 182 c53 218 60 258 44 258 -6 0 -16 -11 -21 -24z
m230 -385 c0 -16 -48 -67 -55 -59 -4 4 3 21 15 37 21 30 40 40 40 22z m-188
-28 c12 -48 -38 -127 -88 -139 -39 -10 -48 7 -29 52 31 75 106 130 117 87z"/>
<path d="M1463 963 c-8 -21 -37 -110 -63 -198 -47 -159 -48 -160 -75 -157 -23
3 -38 -8 -94 -67 -36 -39 -71 -71 -78 -71 -12 0 -18 13 -28 73 -9 56 -42 51
-96 -15 -38 -48 -41 -50 -35 -23 16 74 18 105 7 105 -6 0 -17 -15 -24 -33 -8
-18 -36 -52 -61 -74 -80 -71 -146 -78 -146 -18 0 18 7 25 30 30 33 7 80 57 80
84 0 22 -19 41 -41 41 -21 0 -65 -50 -84 -97 -21 -49 -19 -89 5 -113 34 -34
76 -25 151 33 l46 34 -1 -40 c-1 -22 4 -42 10 -44 6 -2 34 28 63 67 51 71 71
80 71 35 0 -48 18 -75 49 -75 15 0 34 7 41 15 11 14 14 13 24 -7 17 -33 40
-33 79 2 l35 30 6 -34 c6 -31 21 -46 46 -46 5 0 25 14 45 31 19 17 35 26 35
20 0 -5 9 -15 19 -20 15 -8 27 -5 53 12 l34 24 17 -24 c23 -30 36 -29 85 7
l42 30 0 -28 c0 -33 25 -72 47 -72 8 0 33 17 54 39 35 34 39 36 45 19 3 -11
16 -24 29 -30 33 -15 65 8 112 77 37 57 38 93 0 40 -12 -17 -36 -45 -54 -64
-27 -27 -36 -31 -48 -21 -25 21 -17 62 29 161 108 232 148 384 101 384 -39 0
-133 -225 -166 -395 -6 -36 -20 -81 -30 -102 -21 -41 -66 -81 -82 -71 -24 15
22 250 97 484 15 50 21 81 15 90 -8 12 -12 11 -23 -4 -15 -19 -87 -268 -110
-379 -16 -75 -43 -121 -87 -143 -34 -18 -33 -19 -34 64 0 47 -4 66 -16 74 -29
18 -68 -1 -102 -50 -40 -59 -97 -123 -108 -123 -33 0 -9 117 80 405 23 71 41
137 41 147 0 31 -20 20 -37 -19z m547 -74 c-17 -63 -113 -295 -117 -282 -2 6
10 55 28 109 49 156 122 296 89 173z m-1160 -292 c0 -14 -21 -36 -48 -52 -12
-6 -12 -3 -2 16 25 47 50 65 50 36z m480 -32 c0 -26 -28 -72 -56 -94 -15 -12
-29 -19 -31 -17 -11 11 10 65 37 94 31 35 50 41 50 17z m245 -7 c-7 -24 -44
-88 -50 -88 -2 0 -10 -3 -19 -6 -26 -10 -19 29 14 74 33 46 66 58 55 20z"/>
<path d="M3511 963 c-6 -21 -33 -125 -60 -230 -44 -170 -53 -198 -86 -237 -40
-49 -64 -63 -76 -44 -9 14 -6 32 22 128 19 68 12 99 -14 59 -24 -37 -49 -173
-37 -203 13 -35 47 -34 87 4 18 17 34 30 35 30 2 0 2 -15 0 -34 -4 -35 14 -59
24 -31 5 11 14 14 39 9 37 -7 121 16 171 47 l34 21 0 -25 c0 -26 23 -42 43
-31 7 4 23 16 36 28 17 15 25 17 28 8 7 -19 33 -42 47 -42 7 0 29 11 49 24
l35 24 -5 -34 c-4 -27 -2 -34 11 -34 9 0 16 6 16 13 0 23 61 142 88 170 14 15
34 27 45 27 23 0 17 24 -7 28 -10 2 -33 -13 -57 -38 -43 -45 -44 -45 -27 12 8
28 8 42 0 50 -13 13 -22 -6 -46 -93 -12 -42 -26 -65 -52 -88 -49 -44 -60 -37
-56 39 2 70 -8 90 -46 90 -18 0 -40 -15 -72 -50 -47 -51 -107 -100 -122 -100
-5 0 -2 13 7 30 18 35 20 101 3 118 -18 18 -57 14 -89 -9 -16 -11 -29 -18 -29
-14 0 10 57 232 80 310 24 83 25 105 5 105 -8 0 -18 -16 -24 -37z m37 -405 c6
-55 -60 -128 -102 -112 -27 11 -14 53 35 108 36 42 63 43 67 4z m212 -1 c0
-26 -64 -106 -75 -95 -12 12 3 54 31 87 31 37 44 39 44 8z"/>
<path d="M3317 720 c-6 -22 7 -35 23 -25 15 9 12 45 -4 45 -7 0 -16 -9 -19
-20z"/>
<path d="M4137 733 c-4 -3 -7 -15 -7 -25 0 -22 26 -24 34 -2 10 25 -10 45 -27
27z"/>
</g>
</svg>
