<?xml version="1.0" standalone="no"?>
<!DOCTYPE svg PUBLIC "-//W3C//DTD SVG 20010904//EN"
 "http://www.w3.org/TR/2001/REC-SVG-20010904/DTD/svg10.dtd">
<svg version="1.0" xmlns="http://www.w3.org/2000/svg"
 width="679.000000pt" height="182.000000pt" viewBox="0 0 679.000000 182.000000"
 preserveAspectRatio="xMidYMid meet">

<g transform="translate(0.000000,182.000000) scale(0.100000,-0.100000)"
fill="#000000" stroke="none">
<path d="M3433 1755 c-168 -46 -398 -197 -563 -372 -56 -58 -80 -92 -80 -109
0 -48 61 -42 68 7 11 71 258 281 439 373 88 44 202 78 240 71 66 -12 38 -80
-99 -235 -69 -79 -348 -339 -348 -326 0 6 131 197 180 263 24 33 20 53 -10 53
-21 0 -99 -107 -211 -288 -59 -97 -88 -130 -153 -175 -31 -21 -34 -47 -6 -47
11 0 20 -2 20 -4 0 -1 -23 -52 -51 -112 -88 -187 -111 -274 -70 -274 15 0 23
13 36 58 9 31 48 123 87 204 l71 147 51 12 c92 20 246 23 308 5 69 -20 118
-63 118 -103 0 -26 -7 -31 -98 -67 -234 -94 -447 -212 -584 -322 -107 -87
-141 -151 -99 -193 17 -17 33 -21 82 -21 189 0 644 298 718 470 13 30 26 61
30 69 6 13 100 55 107 48 2 -2 -5 -21 -16 -42 -24 -47 -26 -88 -4 -109 30 -30
75 -13 139 53 44 46 55 50 55 20 0 -84 97 -86 216 -5 21 14 39 24 41 22 2 -1
-6 -24 -18 -50 -22 -51 -20 -76 8 -76 12 0 28 20 46 54 16 30 53 81 82 113
l54 58 16 -22 c12 -18 26 -23 60 -23 24 0 55 4 69 10 14 5 26 7 26 4 0 -4 -16
-42 -36 -86 -20 -44 -33 -86 -30 -94 11 -29 39 -9 78 56 40 67 114 150 133
150 5 0 16 -9 23 -20 14 -23 79 -28 114 -9 29 16 31 6 9 -37 -31 -59 -36 -98
-16 -117 33 -33 95 -14 188 57 l47 36 0 -36 c0 -24 8 -43 26 -61 23 -23 31
-25 74 -20 55 7 108 31 193 88 31 22 57 38 57 37 0 -2 -9 -26 -20 -54 -16 -43
-17 -55 -6 -69 21 -29 51 -10 125 78 80 95 138 153 146 145 3 -3 9 -27 14 -54
9 -61 27 -90 64 -105 39 -16 107 1 166 42 24 17 41 25 38 17 -2 -7 -21 -51
-40 -98 -60 -144 -74 -267 -29 -258 13 2 17 15 18 58 1 35 15 90 38 151 38
102 218 485 236 503 7 7 106 11 295 12 157 0 288 3 292 7 4 4 1 13 -5 19 -9 9
-89 12 -287 13 -268 0 -292 3 -266 30 16 18 91 195 91 216 0 15 -5 20 -21 17
-16 -2 -35 -33 -81 -134 l-60 -132 -45 -6 c-25 -3 -70 -6 -99 -6 -79 0 -355
-29 -381 -40 -14 -6 -23 -18 -23 -31 0 -18 4 -20 28 -15 90 20 146 27 312 40
101 8 186 14 187 12 4 -4 -110 -249 -130 -279 -20 -31 -101 -82 -154 -98 -36
-10 -46 -10 -66 4 -20 13 -25 27 -31 87 -11 113 -51 109 -173 -16 -46 -47 -83
-82 -83 -78 0 4 21 45 46 91 32 59 43 88 36 95 -18 18 -39 2 -75 -55 -27 -41
-56 -68 -119 -110 -157 -104 -238 -116 -238 -36 0 22 10 32 55 58 119 67 130
190 12 132 -25 -12 -59 -43 -85 -76 -44 -58 -178 -155 -213 -155 -28 0 -24 21
26 114 39 74 42 86 29 97 -12 10 -19 10 -32 1 -84 -61 -128 -68 -164 -27 -29
34 -47 32 -98 -12 -24 -20 -41 -33 -39 -28 42 90 49 109 40 118 -16 16 -40 0
-58 -37 -28 -60 -121 -87 -158 -46 -26 29 -59 25 -99 -14 -20 -18 -36 -32 -36
-31 0 2 11 27 25 56 18 39 21 56 13 66 -18 22 -27 15 -62 -56 -36 -71 -82
-114 -173 -160 -84 -42 -113 -22 -89 63 21 72 20 109 -4 131 -27 25 -89 15
-137 -22 -32 -25 -153 -73 -182 -73 -5 0 -15 16 -21 35 -15 46 -72 92 -139
112 -42 12 -83 14 -175 10 -67 -2 -129 -8 -138 -12 -44 -18 -9 21 99 112 230
192 403 373 457 480 53 105 -23 157 -171 118z m367 -812 c0 -20 -41 -75 -95
-126 -74 -71 -99 -70 -63 2 43 88 158 178 158 124z m1260 8 c0 -11 -58 -61
-71 -61 -15 0 8 37 33 54 25 18 38 20 38 7z m-1610 -135 c0 -28 -84 -138 -147
-192 -184 -156 -439 -289 -542 -282 -39 3 -46 6 -49 26 -7 46 155 180 343 283
76 41 372 178 388 179 4 0 7 -6 7 -14z"/>
<path d="M878 1736 c-136 -56 -261 -148 -434 -320 -299 -298 -403 -517 -298
-627 45 -47 109 -62 238 -56 110 5 191 21 182 36 -3 4 -38 3 -78 -2 -130 -16
-261 5 -304 48 -20 20 -24 34 -24 84 0 49 6 72 35 127 53 101 134 204 274 347
189 193 361 311 495 339 49 11 57 10 76 -7 64 -58 -29 -381 -203 -705 -133
-245 -146 -263 -214 -290 -156 -63 -340 -186 -440 -295 -114 -124 -187 -307
-143 -360 17 -21 83 -19 128 4 101 52 297 264 470 510 48 68 92 129 99 136 12
12 130 47 205 60 36 7 37 6 40 -26 7 -74 59 -64 155 30 l71 70 6 -31 c3 -17
11 -37 17 -45 20 -24 84 -15 153 21 53 28 65 31 64 18 -3 -41 3 -62 23 -72 30
-17 66 1 125 61 l48 49 11 -42 c18 -75 91 -77 199 -4 l63 43 -18 -41 c-23 -51
-24 -85 -3 -93 12 -5 51 29 142 123 l125 129 8 -62 c12 -95 37 -123 115 -123
42 0 128 45 178 93 34 33 38 41 23 45 -10 2 -33 -10 -54 -29 -46 -40 -108 -68
-150 -69 -42 0 -63 30 -63 93 0 124 -63 118 -189 -20 -39 -43 -71 -73 -71 -68
0 6 22 48 50 94 37 63 47 88 39 98 -16 19 -42 1 -72 -49 -33 -56 -78 -98 -152
-143 -77 -46 -118 -46 -123 1 -2 18 4 49 12 69 22 52 20 78 -7 103 -45 43 -89
27 -193 -68 -86 -78 -207 -146 -238 -134 -16 6 -18 15 -12 75 5 44 3 69 -4 74
-6 4 -53 -37 -108 -94 -54 -56 -103 -101 -110 -101 -28 0 -5 73 49 155 35 54
40 72 25 84 -24 20 -44 1 -87 -82 -23 -45 -47 -85 -52 -89 -6 -3 -31 -9 -56
-13 -25 -3 -59 -10 -76 -15 -16 -4 -43 -11 -58 -14 l-28 -7 25 39 c50 80 176
331 220 438 73 178 98 275 100 381 1 84 -1 93 -23 117 -21 23 -33 26 -85 26
-41 0 -80 -8 -118 -24z m787 -786 c10 -16 -29 -71 -89 -128 -59 -56 -92 -68
-80 -29 16 52 45 92 102 140 35 28 57 34 67 17z m-1051 -327 c-130 -203 -376
-482 -466 -529 -16 -8 -39 -14 -51 -12 -55 8 5 177 103 291 86 101 193 183
354 273 92 51 105 46 60 -23z"/>
<path d="M4770 1115 c-18 -22 -8 -50 19 -50 32 0 49 28 32 49 -17 20 -35 20
-51 1z"/>
<path d="M6000 949 c-62 -74 -79 -106 -87 -164 -7 -51 14 -85 51 -85 49 0 119
66 151 143 14 35 16 36 46 25 17 -6 53 -8 80 -5 40 5 58 2 95 -17 l46 -23 -39
-23 c-105 -64 -160 -133 -132 -166 30 -36 150 2 223 71 35 32 38 41 40 94 1
20 12 28 76 52 41 16 101 36 133 44 35 10 57 22 57 31 0 8 -7 14 -16 14 -28 0
-136 -31 -216 -61 l-76 -30 -46 21 c-59 28 -71 43 -56 69 7 14 21 21 40 21 18
0 30 5 30 13 0 18 -21 37 -42 37 -26 0 -77 -51 -81 -80 -3 -22 -9 -25 -51 -28
-57 -4 -91 15 -101 55 -18 75 -58 72 -125 -8z m80 -50 c0 -42 -34 -103 -74
-134 -34 -26 -56 -27 -56 -2 0 24 48 113 78 145 35 38 52 35 52 -9z m335 -145
c-20 -38 -59 -66 -124 -89 -56 -19 -56 1 2 50 43 38 128 87 137 79 2 -3 -4
-20 -15 -40z"/>
</g>
</svg>
